# xmcd
#
# Track frame offsets: 
#        150
#        11673
#        29893
#        53726
#        71296
#        84306
#        97020
#        108504
#        124170
#        152003
#        167598
#        183307
#
# Disc length: 2561 seconds
#
# Revision: 0
# Processed by: cddbd v1.5.2PL0 Copyright (c) Steve Scherf et al.
# Submitted via: ExactAudioCopy v1.0b4
#
DISCID=9709ff0c
DTITLE=Various Artist - The Blues Vol 3 (DLP) LP 2
DYEAR=1900
DGENRE=Blues
TTITLE0=Eddie Guitar Burns - Eddie Guitar Burns - I Wanna Trade With Y
TTITLE0=ou
TTITLE1=Eddie Playboy Taylo and The Blueshounds - Eddie Playboy Taylo and 
TTITLE1=The Blueshounds - My Little Machine
TTITLE2=Homesick James - Homesick James - Lonesome Train
TTITLE3=Mickey Baker - Mickey Baker - Blues Fell This Morning
TTITLE4=Whispewring Smith - Whispewring Smith - Take Me Back Baby
TTITLE5=Doctor Ross - Doctor Ross - Doctor Rosss Rockin'
TTITLE6=Cousin Joe - Cousin Joe - I'm Cousin Joe From New Orleans
TTITLE7=Eddie Playboy Taylor and The Blueshounds - Eddie Playboy Taylor 
TTITLE7=& The Blueshounds - Ready For Eddie
TTITLE8=Johnny Mars and The Oakland Boogie - Johnny Mars and The Oakland B
TTITLE8=oogie - If I Had A Woman
TTITLE9=Eddie Guitar Burns - Eddie Guitar Burns - Do It If You Wanna
TTITLE10=Mickey Baker - Mickey Baker - I'll Always Be In Love
TTITLE11=Boogie Woogie Red - Boogie Woogie Red - Viper Song
EXTD=
EXTT0=
EXTT1=
EXTT2=
EXTT3=
EXTT4=
EXTT5=
EXTT6=
EXTT7=
EXTT8=
EXTT9=
EXTT10=
EXTT11=
PLAYORDER=
